<svg width="60" height="60" viewBox="0 0 60 60" fill="none" xmlns="http://www.w3.org/2000/svg">
<path fill-rule="evenodd" clip-rule="evenodd" d="M30 2.5C28.6192 2.5 27.5 3.6193 27.5 5V7.5H25C20.9105 7.5 17.647 9.00922 15.4227 11.4357C13.2353 13.8219 12.1875 16.9461 12.1875 20C12.1875 23.0539 13.2353 26.178 15.4227 28.5643C15.8334 29.0123 16.2794 29.429 16.7596 29.8108C18.8801 31.4965 21.6655 32.5 25 32.5H27.5V47.5H25C22.9375 47.5 21.5568 46.9915 20.6055 46.3573C19.6386 45.7127 18.9628 44.8355 18.4861 43.882C18.0045 42.9187 17.7512 41.9253 17.6222 41.1515C17.5582 40.7675 17.5103 40.378 17.5 39.9883C17.4934 38.6135 16.3765 37.5 15 37.5C13.6193 37.5 12.5 38.6193 12.5 40C12.5001 40.168 12.506 40.3292 12.5259 40.6077C12.5502 40.9477 12.5975 41.417 12.6903 41.9735C12.8738 43.0747 13.2455 44.5813 14.0139 46.118C14.7872 47.6645 15.9864 49.2873 17.832 50.5177C19.6933 51.7585 22.0625 52.5 25 52.5H27.5V55C27.5 56.3807 28.6192 57.5 30 57.5C31.3808 57.5 32.5 56.3807 32.5 55V52.5H35C39.0895 52.5 42.353 50.9907 44.5773 48.5642C46.7648 46.178 47.8125 43.054 47.8125 40C47.8125 36.946 46.7648 33.822 44.5773 31.4357C42.353 29.0092 39.0895 27.5 35 27.5H32.5V12.5H35C37.0625 12.5 38.4433 13.0084 39.3945 13.6426C40.3615 14.2872 41.0373 15.1646 41.514 16.118C41.9955 17.0812 42.2487 18.0747 42.3777 18.8485C42.4417 19.2326 42.4897 19.622 42.5 20.0116C42.5068 21.3867 43.6235 22.5 45 22.5C46.3645 22.5 47.5 21.3609 47.5 19.9974C47.4997 19.8303 47.494 19.6692 47.474 19.3922C47.4497 19.0523 47.4025 18.583 47.3098 18.0265C47.1263 16.9253 46.7545 15.4188 45.986 13.882C45.2127 12.3354 44.0135 10.7128 42.168 9.48237C40.3068 8.24155 37.9375 7.5 35 7.5H32.5V5C32.5 3.6193 31.3808 2.5 30 2.5ZM27.5 12.5H25C22.2145 12.5 20.3218 13.4908 19.1085 14.8143C17.8584 16.1781 17.1875 18.0539 17.1875 20C17.1875 21.9461 17.8584 23.8219 19.1085 25.1857C20.3218 26.5092 22.2145 27.5 25 27.5H27.5V12.5ZM32.5 32.5V47.5H35C37.7855 47.5 39.6782 46.5093 40.8915 45.1858C42.1415 43.822 42.8125 41.946 42.8125 40C42.8125 38.054 42.1415 36.178 40.8915 34.8143C39.6782 33.4908 37.7855 32.5 35 32.5H32.5Z" fill="white"/>
</svg>
