<svg width="80" height="80" viewBox="0 0 80 80" fill="none" xmlns="http://www.w3.org/2000/svg">
<g clip-path="url(#clip0_156_1243)">
<path d="M36.6667 6.66675L60.9933 14.2667C61.6718 14.4786 62.2648 14.9017 62.6858 15.4744C63.1068 16.0471 63.3336 16.7393 63.3333 17.4501V23.3334H70C70.8841 23.3334 71.7319 23.6846 72.357 24.3097C72.9821 24.9348 73.3333 25.7827 73.3333 26.6667V33.3334H30V26.6667C30 25.7827 30.3512 24.9348 30.9763 24.3097C31.6014 23.6846 32.4493 23.3334 33.3333 23.3334H56.6667V19.9001L36.6667 13.6467L16.6667 19.9001V44.5801C16.6662 46.6208 17.1342 48.6345 18.0345 50.4659C18.9349 52.2973 20.2437 53.8975 21.86 55.1434L22.49 55.5967L36.6667 65.2667L49.2733 56.6667H33.3333C32.4493 56.6667 31.6014 56.3156 30.9763 55.6904C30.3512 55.0653 30 54.2175 30 53.3334V40.0001H73.3333V53.3334C73.3333 54.2175 72.9821 55.0653 72.357 55.6904C71.7319 56.3156 70.8841 56.6667 70 56.6667L59.2667 56.6701C57.9767 58.3701 56.41 59.8701 54.6 61.1034L36.6667 73.3334L18.7333 61.1068C16.0417 59.2716 13.8392 56.8067 12.3171 53.9265C10.7951 51.0462 9.99966 47.8378 10 44.5801V17.4501C10.0004 16.7399 10.2276 16.0484 10.6485 15.4764C11.0695 14.9043 11.6621 14.4817 12.34 14.2701L36.6667 6.66675Z" fill="white"/>
</g>
<defs>
<clipPath id="clip0_156_1243">
<rect width="80" height="80" fill="white"/>
</clipPath>
</defs>
</svg>
